<mxfile host="app.diagrams.net" modified="2021-09-12T06:38:47.533Z" agent="5.0 (Macintosh; Intel Mac OS X 10_15_7) AppleWebKit/537.36 (KHTML, like Gecko) Chrome/93.0.4577.63 Safari/537.36" etag="jXsf266MvzwILVA4zJfG" version="15.1.4" type="github">
  <diagram id="IL_mM1gIvbstTeOMvLZC" name="Page-1">
    <mxGraphModel dx="1426" dy="800" grid="1" gridSize="10" guides="1" tooltips="1" connect="1" arrows="1" fold="1" page="1" pageScale="1" pageWidth="827" pageHeight="1169" math="0" shadow="0">
      <root>
        <mxCell id="0" />
        <mxCell id="1" parent="0" />
        <mxCell id="gWDNcxBYeCoUoLH7jfs3-2" value="" style="rounded=0;whiteSpace=wrap;html=1;" parent="1" vertex="1">
          <mxGeometry x="260" y="160" width="420" height="240" as="geometry" />
        </mxCell>
        <mxCell id="gWDNcxBYeCoUoLH7jfs3-3" value="" style="rounded=0;whiteSpace=wrap;html=1;" parent="1" vertex="1">
          <mxGeometry x="270" y="500" width="410" height="140" as="geometry" />
        </mxCell>
        <mxCell id="gWDNcxBYeCoUoLH7jfs3-4" value="" style="rounded=0;whiteSpace=wrap;html=1;" parent="1" vertex="1">
          <mxGeometry x="277.5" y="190" width="100" height="190" as="geometry" />
        </mxCell>
        <mxCell id="gWDNcxBYeCoUoLH7jfs3-6" value="1" style="ellipse;whiteSpace=wrap;html=1;aspect=fixed;fillColor=#A680B8;" parent="1" vertex="1">
          <mxGeometry x="302.5" y="260" width="50" height="50" as="geometry" />
        </mxCell>
        <mxCell id="gWDNcxBYeCoUoLH7jfs3-8" value="0" style="ellipse;whiteSpace=wrap;html=1;aspect=fixed;fillColor=#99CCFF;" parent="1" vertex="1">
          <mxGeometry x="303" y="320" width="50" height="50" as="geometry" />
        </mxCell>
        <mxCell id="gWDNcxBYeCoUoLH7jfs3-9" value="1" style="ellipse;whiteSpace=wrap;html=1;aspect=fixed;fillColor=#E6E6E6;" parent="1" vertex="1">
          <mxGeometry x="300" y="200" width="50" height="50" as="geometry" />
        </mxCell>
        <mxCell id="jHvEGmgFJhY84yqwyBK8-6" style="edgeStyle=orthogonalEdgeStyle;rounded=0;orthogonalLoop=1;jettySize=auto;html=1;entryX=0;entryY=0.5;entryDx=0;entryDy=0;entryPerimeter=0;" edge="1" parent="1" source="gWDNcxBYeCoUoLH7jfs3-10" target="jHvEGmgFJhY84yqwyBK8-1">
          <mxGeometry relative="1" as="geometry" />
        </mxCell>
        <mxCell id="gWDNcxBYeCoUoLH7jfs3-10" value="" style="ellipse;shape=cloud;whiteSpace=wrap;html=1;fillColor=#E6E6E6;" parent="1" vertex="1">
          <mxGeometry x="160" y="10" width="120" height="80" as="geometry" />
        </mxCell>
        <mxCell id="jHvEGmgFJhY84yqwyBK8-5" style="edgeStyle=orthogonalEdgeStyle;rounded=0;orthogonalLoop=1;jettySize=auto;html=1;" edge="1" parent="1" source="gWDNcxBYeCoUoLH7jfs3-11">
          <mxGeometry relative="1" as="geometry">
            <mxPoint x="230" y="145" as="targetPoint" />
          </mxGeometry>
        </mxCell>
        <mxCell id="gWDNcxBYeCoUoLH7jfs3-11" value="Actor" style="shape=umlActor;verticalLabelPosition=bottom;verticalAlign=top;html=1;outlineConnect=0;fillColor=#A680B8;" parent="1" vertex="1">
          <mxGeometry x="40" y="115" width="30" height="60" as="geometry" />
        </mxCell>
        <mxCell id="gWDNcxBYeCoUoLH7jfs3-12" value="&lt;b&gt;Actor RFQ&lt;/b&gt;" style="text;html=1;strokeColor=none;fillColor=none;align=center;verticalAlign=middle;whiteSpace=wrap;rounded=0;" parent="1" vertex="1">
          <mxGeometry x="435" y="130" width="70" height="20" as="geometry" />
        </mxCell>
        <mxCell id="gWDNcxBYeCoUoLH7jfs3-13" value="onRecive" style="text;html=1;strokeColor=none;fillColor=none;align=center;verticalAlign=middle;whiteSpace=wrap;rounded=0;" parent="1" vertex="1">
          <mxGeometry x="270" y="170" width="65" height="20" as="geometry" />
        </mxCell>
        <mxCell id="gWDNcxBYeCoUoLH7jfs3-14" value="&lt;b&gt;CPS&lt;/b&gt;" style="text;html=1;strokeColor=none;fillColor=none;align=center;verticalAlign=middle;whiteSpace=wrap;rounded=0;" parent="1" vertex="1">
          <mxGeometry x="200" y="40" width="40" height="20" as="geometry" />
        </mxCell>
        <mxCell id="gWDNcxBYeCoUoLH7jfs3-15" value="" style="shape=cylinder3;whiteSpace=wrap;html=1;boundedLbl=1;backgroundOutline=1;size=15;fillColor=#99CCFF;" parent="1" vertex="1">
          <mxGeometry x="305" y="655" width="60" height="80" as="geometry" />
        </mxCell>
        <mxCell id="gWDNcxBYeCoUoLH7jfs3-16" value="&lt;b&gt;KDB&lt;/b&gt;" style="text;html=1;strokeColor=none;fillColor=none;align=center;verticalAlign=middle;whiteSpace=wrap;rounded=0;" parent="1" vertex="1">
          <mxGeometry x="315" y="690" width="40" height="20" as="geometry" />
        </mxCell>
        <mxCell id="gWDNcxBYeCoUoLH7jfs3-17" value="&lt;b&gt;Actor KDB&lt;/b&gt;" style="text;html=1;strokeColor=none;fillColor=none;align=center;verticalAlign=middle;whiteSpace=wrap;rounded=0;" parent="1" vertex="1">
          <mxGeometry x="440" y="475" width="70" height="20" as="geometry" />
        </mxCell>
        <mxCell id="gWDNcxBYeCoUoLH7jfs3-32" style="edgeStyle=orthogonalEdgeStyle;rounded=0;orthogonalLoop=1;jettySize=auto;html=1;" parent="1" source="gWDNcxBYeCoUoLH7jfs3-18" target="gWDNcxBYeCoUoLH7jfs3-23" edge="1">
          <mxGeometry relative="1" as="geometry" />
        </mxCell>
        <mxCell id="gWDNcxBYeCoUoLH7jfs3-34" style="edgeStyle=orthogonalEdgeStyle;rounded=0;orthogonalLoop=1;jettySize=auto;html=1;entryX=0.5;entryY=0;entryDx=0;entryDy=0;" parent="1" source="gWDNcxBYeCoUoLH7jfs3-18" target="gWDNcxBYeCoUoLH7jfs3-19" edge="1">
          <mxGeometry relative="1" as="geometry" />
        </mxCell>
        <mxCell id="gWDNcxBYeCoUoLH7jfs3-18" value="ODF Service" style="rounded=1;whiteSpace=wrap;html=1;fillColor=#FFFFFF;" parent="1" vertex="1">
          <mxGeometry x="555" y="195" width="85" height="45" as="geometry" />
        </mxCell>
        <mxCell id="jHvEGmgFJhY84yqwyBK8-11" value="" style="edgeStyle=orthogonalEdgeStyle;rounded=0;orthogonalLoop=1;jettySize=auto;html=1;entryX=0.5;entryY=0;entryDx=0;entryDy=0;" edge="1" parent="1" source="gWDNcxBYeCoUoLH7jfs3-19" target="gWDNcxBYeCoUoLH7jfs3-48">
          <mxGeometry relative="1" as="geometry" />
        </mxCell>
        <mxCell id="gWDNcxBYeCoUoLH7jfs3-19" value="Database Lookup" style="rounded=1;whiteSpace=wrap;html=1;fillColor=#FFFFFF;" parent="1" vertex="1">
          <mxGeometry x="555" y="270" width="85" height="40" as="geometry" />
        </mxCell>
        <mxCell id="gWDNcxBYeCoUoLH7jfs3-47" value="" style="edgeStyle=orthogonalEdgeStyle;rounded=0;orthogonalLoop=1;jettySize=auto;html=1;" parent="1" source="gWDNcxBYeCoUoLH7jfs3-20" target="gWDNcxBYeCoUoLH7jfs3-18" edge="1">
          <mxGeometry relative="1" as="geometry" />
        </mxCell>
        <mxCell id="gWDNcxBYeCoUoLH7jfs3-20" value="" style="ellipse;whiteSpace=wrap;html=1;fillColor=#FFFFFF;" parent="1" vertex="1">
          <mxGeometry x="395" y="177.5" width="120" height="80" as="geometry" />
        </mxCell>
        <mxCell id="gWDNcxBYeCoUoLH7jfs3-21" value="Internal Cache" style="text;html=1;strokeColor=none;fillColor=none;align=center;verticalAlign=middle;whiteSpace=wrap;rounded=0;" parent="1" vertex="1">
          <mxGeometry x="435" y="207.5" width="40" height="20" as="geometry" />
        </mxCell>
        <mxCell id="gWDNcxBYeCoUoLH7jfs3-23" value="ODF" style="shape=cylinder3;whiteSpace=wrap;html=1;boundedLbl=1;backgroundOutline=1;size=15;fillColor=#FFFFFF;" parent="1" vertex="1">
          <mxGeometry x="720" y="177.5" width="60" height="80" as="geometry" />
        </mxCell>
        <mxCell id="jHvEGmgFJhY84yqwyBK8-17" style="edgeStyle=orthogonalEdgeStyle;rounded=0;orthogonalLoop=1;jettySize=auto;html=1;entryX=1;entryY=0.5;entryDx=0;entryDy=0;entryPerimeter=0;" edge="1" parent="1" source="gWDNcxBYeCoUoLH7jfs3-24" target="gWDNcxBYeCoUoLH7jfs3-15">
          <mxGeometry relative="1" as="geometry" />
        </mxCell>
        <mxCell id="gWDNcxBYeCoUoLH7jfs3-24" value="Quote Reader" style="rounded=1;whiteSpace=wrap;html=1;fillColor=#FFFFFF;" parent="1" vertex="1">
          <mxGeometry x="541.25" y="680" width="112.5" height="30" as="geometry" />
        </mxCell>
        <mxCell id="gWDNcxBYeCoUoLH7jfs3-37" style="edgeStyle=orthogonalEdgeStyle;rounded=0;orthogonalLoop=1;jettySize=auto;html=1;" parent="1" source="gWDNcxBYeCoUoLH7jfs3-26" target="gWDNcxBYeCoUoLH7jfs3-24" edge="1">
          <mxGeometry relative="1" as="geometry" />
        </mxCell>
        <mxCell id="gWDNcxBYeCoUoLH7jfs3-26" value="Quote Reader Datasource" style="rounded=1;whiteSpace=wrap;html=1;fillColor=#FFFFFF;" parent="1" vertex="1">
          <mxGeometry x="547.5" y="540" width="100" height="40" as="geometry" />
        </mxCell>
        <mxCell id="gWDNcxBYeCoUoLH7jfs3-27" value="KDB Datasource" style="rounded=1;whiteSpace=wrap;html=1;fillColor=#FFCCCC;" parent="1" vertex="1">
          <mxGeometry x="407.5" y="540" width="95" height="40" as="geometry" />
        </mxCell>
        <mxCell id="gWDNcxBYeCoUoLH7jfs3-36" value="Forward to actor" style="text;html=1;strokeColor=none;fillColor=none;align=center;verticalAlign=middle;whiteSpace=wrap;rounded=0;" parent="1" vertex="1">
          <mxGeometry x="270" y="430" width="100" height="20" as="geometry" />
        </mxCell>
        <mxCell id="gWDNcxBYeCoUoLH7jfs3-39" value="" style="curved=1;endArrow=classic;html=1;exitX=0;exitY=0.25;exitDx=0;exitDy=0;" parent="1" source="gWDNcxBYeCoUoLH7jfs3-3" edge="1">
          <mxGeometry width="50" height="50" relative="1" as="geometry">
            <mxPoint x="200" y="470" as="sourcePoint" />
            <mxPoint x="236" y="150" as="targetPoint" />
            <Array as="points">
              <mxPoint x="120" y="490" />
              <mxPoint x="130" y="390" />
            </Array>
          </mxGeometry>
        </mxCell>
        <mxCell id="gWDNcxBYeCoUoLH7jfs3-40" value="Async Callback" style="text;html=1;strokeColor=none;fillColor=none;align=center;verticalAlign=middle;whiteSpace=wrap;rounded=0;" parent="1" vertex="1">
          <mxGeometry x="80" y="380" width="40" height="20" as="geometry" />
        </mxCell>
        <mxCell id="gWDNcxBYeCoUoLH7jfs3-45" value="" style="curved=1;endArrow=classic;html=1;exitX=0.066;exitY=1.008;exitDx=0;exitDy=0;exitPerimeter=0;entryX=0;entryY=0;entryDx=0;entryDy=0;" parent="1" source="gWDNcxBYeCoUoLH7jfs3-2" target="jHvEGmgFJhY84yqwyBK8-10" edge="1">
          <mxGeometry width="50" height="50" relative="1" as="geometry">
            <mxPoint x="390" y="440" as="sourcePoint" />
            <mxPoint x="440" y="390" as="targetPoint" />
            <Array as="points">
              <mxPoint x="240" y="430" />
            </Array>
          </mxGeometry>
        </mxCell>
        <mxCell id="gWDNcxBYeCoUoLH7jfs3-48" value="KDB Lookup" style="rounded=1;whiteSpace=wrap;html=1;fillColor=#FFFFFF;" parent="1" vertex="1">
          <mxGeometry x="557.5" y="350" width="80" height="30" as="geometry" />
        </mxCell>
        <mxCell id="jHvEGmgFJhY84yqwyBK8-1" value="" style="shape=cylinder3;whiteSpace=wrap;html=1;boundedLbl=1;backgroundOutline=1;size=15;rotation=90;" vertex="1" parent="1">
          <mxGeometry x="305" y="65" width="24" height="160" as="geometry" />
        </mxCell>
        <mxCell id="jHvEGmgFJhY84yqwyBK8-2" value="" style="shape=cylinder3;whiteSpace=wrap;html=1;boundedLbl=1;backgroundOutline=1;size=15;rotation=90;" vertex="1" parent="1">
          <mxGeometry x="313" y="410" width="24" height="150" as="geometry" />
        </mxCell>
        <mxCell id="jHvEGmgFJhY84yqwyBK8-9" value="RFQ Actor Mailbox" style="text;html=1;strokeColor=none;fillColor=none;align=center;verticalAlign=middle;whiteSpace=wrap;rounded=0;" vertex="1" parent="1">
          <mxGeometry x="254" y="135" width="106" height="20" as="geometry" />
        </mxCell>
        <mxCell id="jHvEGmgFJhY84yqwyBK8-10" value="KDB Actor Mailbox" style="text;html=1;strokeColor=none;fillColor=none;align=center;verticalAlign=middle;whiteSpace=wrap;rounded=0;" vertex="1" parent="1">
          <mxGeometry x="262.5" y="475" width="105" height="20" as="geometry" />
        </mxCell>
        <mxCell id="jHvEGmgFJhY84yqwyBK8-12" value="" style="rounded=0;whiteSpace=wrap;html=1;" vertex="1" parent="1">
          <mxGeometry x="277.5" y="520" width="95" height="100" as="geometry" />
        </mxCell>
        <mxCell id="jHvEGmgFJhY84yqwyBK8-13" value="onRecive" style="text;html=1;strokeColor=none;fillColor=none;align=center;verticalAlign=middle;whiteSpace=wrap;rounded=0;" vertex="1" parent="1">
          <mxGeometry x="270" y="500" width="65" height="20" as="geometry" />
        </mxCell>
        <mxCell id="jHvEGmgFJhY84yqwyBK8-14" value="1" style="ellipse;whiteSpace=wrap;html=1;aspect=fixed;fillColor=#A680B8;" vertex="1" parent="1">
          <mxGeometry x="305" y="540" width="50" height="50" as="geometry" />
        </mxCell>
        <mxCell id="jHvEGmgFJhY84yqwyBK8-23" value="KDB Respo" style="ellipse;whiteSpace=wrap;html=1;aspect=fixed;fillColor=#99CCFF;" vertex="1" parent="1">
          <mxGeometry x="100" y="485" width="50" height="50" as="geometry" />
        </mxCell>
        <mxCell id="jHvEGmgFJhY84yqwyBK8-24" value="" style="rounded=0;whiteSpace=wrap;html=1;" vertex="1" parent="1">
          <mxGeometry x="80" y="90" width="120" height="60" as="geometry" />
        </mxCell>
      </root>
    </mxGraphModel>
  </diagram>
</mxfile>
